solid OpenSCAD_Model
  facet normal -1 0 0
    outer loop
      vertex -110 -75 -100
      vertex -110 75 100
      vertex -110 75 -100
    endloop
  endfacet
  facet normal -1 -0 0
    outer loop
      vertex -110 75 100
      vertex -110 -75 -100
      vertex -110 -75 100
    endloop
  endfacet
  facet normal 0 0 1
    outer loop
      vertex -95 75 100
      vertex -110 75 100
      vertex -95 -45 100
    endloop
  endfacet
  facet normal 0 0 1
    outer loop
      vertex 45 75 100
      vertex 35 45 100
      vertex 45 -45 100
    endloop
  endfacet
  facet normal 0 0 1
    outer loop
      vertex 45 75 100
      vertex -35 45 100
      vertex 35 45 100
    endloop
  endfacet
  facet normal -0 0 1
    outer loop
      vertex -45 75 100
      vertex -35 45 100
      vertex 45 75 100
    endloop
  endfacet
  facet normal 0 0 1
    outer loop
      vertex -45 -45 100
      vertex -35 45 100
      vertex -45 75 100
    endloop
  endfacet
  facet normal 0 0 1
    outer loop
      vertex -35 45 100
      vertex -45 -45 100
      vertex -35 -75 100
    endloop
  endfacet
  facet normal -0 0 1
    outer loop
      vertex -95 -45 100
      vertex -35 -75 100
      vertex -45 -45 100
    endloop
  endfacet
  facet normal 0 0 1
    outer loop
      vertex -95 -45 100
      vertex -110 -75 100
      vertex -35 -75 100
    endloop
  endfacet
  facet normal 0 0 1
    outer loop
      vertex -110 -75 100
      vertex -95 -45 100
      vertex -110 75 100
    endloop
  endfacet
  facet normal 0 0 1
    outer loop
      vertex 95 -45 100
      vertex 110 75 100
      vertex 95 75 100
    endloop
  endfacet
  facet normal 0 0 1
    outer loop
      vertex 110 75 100
      vertex 95 -45 100
      vertex 110 -75 100
    endloop
  endfacet
  facet normal 0 0 1
    outer loop
      vertex 35 -75 100
      vertex 95 -45 100
      vertex 45 -45 100
    endloop
  endfacet
  facet normal 0 0 1
    outer loop
      vertex 95 -45 100
      vertex 35 -75 100
      vertex 110 -75 100
    endloop
  endfacet
  facet normal 0 0 1
    outer loop
      vertex 35 -75 100
      vertex 45 -45 100
      vertex 35 45 100
    endloop
  endfacet
  facet normal 1 -0 0
    outer loop
      vertex 110 -75 100
      vertex 110 75 -100
      vertex 110 75 100
    endloop
  endfacet
  facet normal 1 0 0
    outer loop
      vertex 110 75 -100
      vertex 110 -75 100
      vertex 110 -75 -100
    endloop
  endfacet
  facet normal 0 1 -0
    outer loop
      vertex 110 75 -100
      vertex 95 75 100
      vertex 110 75 100
    endloop
  endfacet
  facet normal 0 1 0
    outer loop
      vertex 95 75 100
      vertex 110 75 -100
      vertex 95 75 -100
    endloop
  endfacet
  facet normal 0 1 -0
    outer loop
      vertex -95 75 -100
      vertex -110 75 100
      vertex -95 75 100
    endloop
  endfacet
  facet normal 0 1 0
    outer loop
      vertex -110 75 100
      vertex -95 75 -100
      vertex -110 75 -100
    endloop
  endfacet
  facet normal 0 1 -0
    outer loop
      vertex 45 75 -100
      vertex -45 75 100
      vertex 45 75 100
    endloop
  endfacet
  facet normal 0 1 0
    outer loop
      vertex -45 75 100
      vertex 45 75 -100
      vertex -45 75 -100
    endloop
  endfacet
  facet normal 0 0 -1
    outer loop
      vertex -35 -75 -100
      vertex -45 -45 -100
      vertex -35 45 -100
    endloop
  endfacet
  facet normal 0 0 -1
    outer loop
      vertex -35 -75 -100
      vertex -95 -45 -100
      vertex -45 -45 -100
    endloop
  endfacet
  facet normal 0 0 -1
    outer loop
      vertex -110 -75 -100
      vertex -95 -45 -100
      vertex -35 -75 -100
    endloop
  endfacet
  facet normal 0 0 -1
    outer loop
      vertex -110 75 -100
      vertex -95 -45 -100
      vertex -110 -75 -100
    endloop
  endfacet
  facet normal 0 0 -1
    outer loop
      vertex -95 -45 -100
      vertex -110 75 -100
      vertex -95 75 -100
    endloop
  endfacet
  facet normal 0 0 -1
    outer loop
      vertex 110 -75 -100
      vertex 95 -45 -100
      vertex 110 75 -100
    endloop
  endfacet
  facet normal 0 0 -1
    outer loop
      vertex 35 -75 -100
      vertex 95 -45 -100
      vertex 110 -75 -100
    endloop
  endfacet
  facet normal -0 0 -1
    outer loop
      vertex 95 -45 -100
      vertex 35 -75 -100
      vertex 45 -45 -100
    endloop
  endfacet
  facet normal 0 0 -1
    outer loop
      vertex 35 45 -100
      vertex 45 -45 -100
      vertex 35 -75 -100
    endloop
  endfacet
  facet normal 0 0 -1
    outer loop
      vertex 45 -45 -100
      vertex 35 45 -100
      vertex 45 75 -100
    endloop
  endfacet
  facet normal 0 0 -1
    outer loop
      vertex -35 45 -100
      vertex 45 75 -100
      vertex 35 45 -100
    endloop
  endfacet
  facet normal 0 0 -1
    outer loop
      vertex -35 45 -100
      vertex -45 75 -100
      vertex 45 75 -100
    endloop
  endfacet
  facet normal 0 0 -1
    outer loop
      vertex -45 75 -100
      vertex -35 45 -100
      vertex -45 -45 -100
    endloop
  endfacet
  facet normal -0 0 -1
    outer loop
      vertex 110 75 -100
      vertex 95 -45 -100
      vertex 95 75 -100
    endloop
  endfacet
  facet normal 0 -1 0
    outer loop
      vertex -110 -75 -100
      vertex -35 -75 100
      vertex -110 -75 100
    endloop
  endfacet
  facet normal 0 -1 -0
    outer loop
      vertex -35 -75 100
      vertex -110 -75 -100
      vertex -35 -75 -100
    endloop
  endfacet
  facet normal 0 -1 0
    outer loop
      vertex 35 -75 -100
      vertex 110 -75 100
      vertex 35 -75 100
    endloop
  endfacet
  facet normal 0 -1 -0
    outer loop
      vertex 110 -75 100
      vertex 35 -75 -100
      vertex 110 -75 -100
    endloop
  endfacet
  facet normal 1 -0 0
    outer loop
      vertex -35 -75 100
      vertex -35 45 -100
      vertex -35 45 100
    endloop
  endfacet
  facet normal 1 0 0
    outer loop
      vertex -35 45 -100
      vertex -35 -75 100
      vertex -35 -75 -100
    endloop
  endfacet
  facet normal -1 0 0
    outer loop
      vertex 35 -75 -100
      vertex 35 45 100
      vertex 35 45 -100
    endloop
  endfacet
  facet normal -1 -0 0
    outer loop
      vertex 35 45 100
      vertex 35 -75 -100
      vertex 35 -75 100
    endloop
  endfacet
  facet normal 0 -1 0
    outer loop
      vertex -35 45 -100
      vertex 35 45 100
      vertex -35 45 100
    endloop
  endfacet
  facet normal 0 -1 -0
    outer loop
      vertex 35 45 100
      vertex -35 45 -100
      vertex 35 45 -100
    endloop
  endfacet
  facet normal 1 -0 0
    outer loop
      vertex -95 -45 100
      vertex -95 75 -100
      vertex -95 75 100
    endloop
  endfacet
  facet normal 1 0 0
    outer loop
      vertex -95 75 -100
      vertex -95 -45 100
      vertex -95 -45 -100
    endloop
  endfacet
  facet normal -1 0 0
    outer loop
      vertex -45 -45 -100
      vertex -45 75 100
      vertex -45 75 -100
    endloop
  endfacet
  facet normal -1 -0 0
    outer loop
      vertex -45 75 100
      vertex -45 -45 -100
      vertex -45 -45 100
    endloop
  endfacet
  facet normal 0 1 -0
    outer loop
      vertex -45 -45 -100
      vertex -95 -45 100
      vertex -45 -45 100
    endloop
  endfacet
  facet normal 0 1 0
    outer loop
      vertex -95 -45 100
      vertex -45 -45 -100
      vertex -95 -45 -100
    endloop
  endfacet
  facet normal 1 -0 0
    outer loop
      vertex 45 -45 100
      vertex 45 75 -100
      vertex 45 75 100
    endloop
  endfacet
  facet normal 1 0 0
    outer loop
      vertex 45 75 -100
      vertex 45 -45 100
      vertex 45 -45 -100
    endloop
  endfacet
  facet normal -1 0 0
    outer loop
      vertex 95 -45 -100
      vertex 95 75 100
      vertex 95 75 -100
    endloop
  endfacet
  facet normal -1 -0 0
    outer loop
      vertex 95 75 100
      vertex 95 -45 -100
      vertex 95 -45 100
    endloop
  endfacet
  facet normal 0 1 -0
    outer loop
      vertex 95 -45 -100
      vertex 45 -45 100
      vertex 95 -45 100
    endloop
  endfacet
  facet normal 0 1 0
    outer loop
      vertex 45 -45 100
      vertex 95 -45 -100
      vertex 45 -45 -100
    endloop
  endfacet
endsolid OpenSCAD_Model
